<svg xmlns="http://www.w3.org/2000/svg" viewBox="0 0 512 512">
  <rect width="512" height="512" rx="64" fill="#1877f2"/>
  <g transform="translate(256,240)" fill="#ffffff">
    <path d="M-120,-100 L-120,-60 C-120,10 -80,70 -20,95 L-20,110 L-70,110 L-70,140 L70,140 L70,110 L20,110 L20,95 C80,70 120,10 120,-60 L120,-100 Z M-80,-60 L-80,-60 C-80,-10 -55,35 -10,58 L0,63 L10,58 C55,35 80,-10 80,-60 L80,-60 Z"/>
    <path d="M-160,-100 L-120,-100 L-120,-60 L-140,-60 C-140,-60 -160,-80 -160,-100 Z" opacity="0.9"/>
    <path d="M160,-100 L120,-100 L120,-60 L140,-60 C140,-60 160,-80 160,-100 Z" opacity="0.9"/>
  </g>
</svg>
